<?xml version="1.0" encoding="UTF-8" standalone="no"?>
<svg
   version="1.1"
   id="cross-11"
   width="11"
   height="11"
   viewBox="0 0 11 11"
   xmlns="http://www.w3.org/2000/svg"
   xmlns:svg="http://www.w3.org/2000/svg">
  <defs
     id="defs46" />
  <path
     d="M 2.2,1.19 5.5,4.49 8.8,1.2 C 8.9314,1.0663 9.1127,0.9938 9.3,1 9.6761,1.0243 9.9757,1.3239 10,1.7 10.0018,1.8806 9.9295,2.0541 9.8,2.18 L 6.49,5.5 9.8,8.82 C 9.9295,8.9459 10.0018,9.1194 10,9.3 9.9757,9.6761 9.6761,9.9757 9.3,10 9.1127,10.0062 8.9314,9.9337 8.8,9.8 L 5.5,6.51 2.21,9.8 C 2.0786,9.9337 1.8973,10.0062 1.71,10 1.3265,9.98 1.02,9.6735 1,9.29 0.9982,9.1094 1.0705,8.9359 1.2,8.81 L 4.51,5.5 1.19,2.18 C 1.0641,2.0524 0.9955,1.8792 1,1.7 1.0243,1.3239 1.3239,1.0243 1.7,1 1.8858,0.9912 2.0669,1.06 2.2,1.19 Z"
     id="path41" />
  <path
     style="fill:#31231e;fill-opacity:1;stroke-width:0.0135301"
     d="M 1.635072,9.9839577 C 1.2239417,9.9152707 0.93087403,9.502265 1.0281775,9.1286916 1.075136,8.948406 1.0070795,9.0214078 2.8155504,7.2114368 3.7487628,6.2774504 4.5123001,5.5073038 4.5123001,5.5 4.5123001,5.4927 3.7487628,4.7225496 2.8155504,3.7885632 1.0070795,1.9785921 1.075136,2.051594 1.0281775,1.8713084 0.93311701,1.5063463 1.2083925,1.1044896 1.610051,1.0218693 c 0.1531048,-0.0314934 0.2929715,-0.00965 0.4436127,0.069271 0.054887,0.028756 0.4456368,0.4114334 1.7585098,1.7221794 L 5.5001158,4.4985274 6.0378808,3.96411 C 6.3336516,3.6701806 7.099262,2.9087243 7.7392374,2.2719849 8.8627448,1.1541584 8.9060917,1.1128157 8.99754,1.0718623 9.1365459,1.0096112 9.2564671,0.99441384 9.3907413,1.0220329 9.6760043,1.0807091 9.89943,1.2937507 9.9714172,1.5757209 9.9975222,1.6779728 9.9974852,1.7592524 9.9712819,1.8598314 9.9205512,2.0545996 9.9985657,1.9704619 8.1765009,3.7954822 7.247663,4.7258327 6.4876999,5.4928657 6.4876999,5.5 c 0,0.00713 0.7599631,0.7741673 1.6888068,1.7045178 1.8220648,1.8250203 1.7440503,1.7408826 1.794781,1.9356508 0.026198,0.1005789 0.026235,0.1818585 1.353e-4,0.2841105 C 9.8994358,9.7062493 9.6760101,9.9192909 9.3907471,9.9779671 9.2564748,10.005586 9.1365548,9.9903893 8.9975458,9.9281397 8.9060708,9.8871764 8.8626161,9.8457094 7.7257131,8.7144849 7.0782903,8.0703015 6.3126795,7.3088446 6.0243498,7.0223583 L 5.5001142,6.5014742 3.8121727,8.1875561 C 2.256433,9.7415819 2.1173432,9.8769553 2.0362854,9.9159959 1.9522627,9.9564644 1.7892659,9.9998106 1.7318573,9.9969533 1.7169742,9.9962132 1.6734208,9.9903645 1.635072,9.9839577 Z"
     id="path227" />
</svg>
